<?xml version="1.0" standalone="no"?>
<!DOCTYPE svg PUBLIC "-//W3C//DTD SVG 20010904//EN"
 "http://www.w3.org/TR/2001/REC-SVG-20010904/DTD/svg10.dtd">
<svg version="1.0" xmlns="http://www.w3.org/2000/svg"
 width="980.000000pt" height="976.000000pt" viewBox="0 0 980.000000 976.000000"
 preserveAspectRatio="xMidYMid meet">

<g transform="translate(0.000000,976.000000) scale(0.100000,-0.100000)"
fill="#008787" stroke="none">
<path d="M4570 8828 c0 -513 0 -939 0 -945 0 -20 -48 -15 -161 16 -421 119
-776 371 -1021 726 -56 81 -108 167 -108 178 0 8 134 58 315 117 179 57 390
110 552 138 l108 19 -1 314 -1 314 -38 3 c-86 7 -448 -68 -715 -149 -332 -100
-570 -196 -865 -348 -525 -271 -952 -601 -1375 -1061 -433 -471 -814 -1124
-1012 -1735 -95 -292 -202 -767 -196 -864 l3 -46 303 -3 c209 -2 308 1 317 8
7 6 16 34 20 63 14 107 69 347 112 492 36 119 138 411 147 422 5 6 158 -95
243 -159 292 -220 517 -532 632 -876 41 -123 69 -247 59 -257 -3 -3 -429 -6
-947 -5 l-941 0 0 -320 0 -321 946 3 946 3 -6 -48 c-12 -85 -86 -308 -141
-422 -151 -313 -386 -575 -682 -761 -47 -30 -92 -54 -98 -54 -41 0 -215 569
-261 852 l-17 108 -31 5 c-41 8 -603 2 -611 -6 -17 -18 90 -530 161 -769 38
-127 116 -346 171 -479 184 -447 492 -941 817 -1311 358 -407 712 -703 1208
-1010 220 -136 696 -351 983 -443 248 -80 623 -164 776 -174 85 -6 86 -5 92
18 8 33 9 480 1 549 l-6 56 -165 33 c-91 18 -209 44 -262 57 -128 33 -512 162
-530 179 -12 11 -7 24 29 82 88 139 168 241 275 349 192 193 381 318 630 417
90 36 332 103 341 94 3 -2 4 -426 4 -941 l0 -936 321 0 322 0 -5 935 c-3 669
-2 935 6 936 59 6 262 -52 408 -116 256 -112 531 -327 699 -545 77 -101 169
-243 169 -263 0 -41 -600 -219 -915 -272 -22 -4 -43 -12 -47 -18 -9 -14 -11
-588 -3 -609 15 -37 439 42 796 148 539 160 1144 477 1588 833 52 42 118 95
146 118 149 119 407 378 568 572 313 373 533 726 744 1191 83 184 189 487 247
710 61 236 124 575 112 606 -4 12 -56 14 -315 14 -297 0 -311 -1 -321 -19 -5
-11 -10 -31 -10 -46 0 -114 -222 -891 -258 -903 -27 -9 -185 93 -324 208 -143
119 -328 345 -423 515 -42 75 -104 221 -132 305 -24 74 -63 225 -63 245 0 7
312 9 923 7 851 -4 925 -3 940 13 15 15 17 49 17 301 0 180 -4 293 -11 305
-10 19 -26 20 -936 19 -509 -1 -927 1 -929 3 -8 8 19 125 53 232 92 287 264
561 478 763 155 146 360 289 402 280 44 -9 221 -616 268 -920 l6 -36 62 -7
c34 -3 177 -5 317 -3 l255 3 -3 65 c-1 36 -16 133 -32 215 -122 640 -346 1198
-701 1748 -354 548 -846 1047 -1387 1406 -356 237 -662 389 -1092 546 -287
104 -796 225 -949 225 l-41 0 0 -304 c0 -167 3 -311 6 -320 3 -9 18 -16 33
-16 34 0 243 -43 389 -80 110 -27 485 -150 524 -171 26 -14 23 -27 -31 -114
-225 -362 -589 -650 -986 -778 -95 -31 -238 -68 -243 -62 -2 1 -3 421 -2 932
0 511 -2 937 -6 946 -6 15 -36 17 -320 17 l-315 0 1 -932z m-1822 -390 c169
-307 485 -642 795 -842 191 -122 454 -244 642 -296 111 -31 118 -36 65 -49
-684 -174 -1277 -669 -1590 -1326 -53 -111 -125 -310 -151 -414 -6 -24 -14
-40 -18 -35 -5 5 -16 40 -25 78 -46 188 -182 481 -318 686 -209 315 -519 604
-830 775 -38 20 -68 41 -68 47 0 15 84 148 159 253 301 422 698 807 1121 1091
85 57 160 104 167 104 6 0 29 -33 51 -72z m4506 -38 c457 -307 840 -689 1156
-1151 107 -157 121 -180 115 -189 -3 -4 -42 -30 -88 -56 -193 -113 -346 -235
-522 -415 -201 -206 -341 -403 -457 -646 -56 -117 -148 -368 -148 -406 0 -10
-5 -28 -11 -39 -15 -28 -22 -16 -55 92 -192 625 -607 1134 -1184 1452 -135 75
-403 180 -493 193 -98 15 -88 31 43 71 384 116 729 325 1028 625 157 157 316
366 398 524 16 30 35 55 42 55 7 0 86 -49 176 -110z m-2688 -1742 c5 -7 8
-338 6 -743 l-3 -730 -731 2 c-432 1 -734 5 -740 11 -6 6 -1 41 12 91 73 289
181 508 355 725 221 275 506 475 827 580 257 83 260 84 274 64z m743 -8 c541
-130 991 -498 1233 -1008 73 -154 158 -426 139 -445 -7 -7 -1461 -11 -1467 -4
-5 6 -12 1466 -7 1471 9 8 7 8 102 -14z m-1459 -2100 l719 0 3 -732 c2 -403 0
-737 -3 -741 -8 -11 -220 46 -332 89 -188 72 -328 155 -508 300 -137 111 -189
165 -290 299 -163 219 -272 448 -330 693 -20 86 -18 108 8 98 8 -3 338 -6 733
-6z m2835 -2 c10 -9 -57 -241 -100 -348 -222 -550 -674 -946 -1256 -1099 -62
-17 -116 -28 -119 -25 -3 3 -5 337 -5 742 l0 737 738 -1 c406 -1 740 -4 742
-6z m615 -306 c0 -28 65 -230 103 -324 169 -410 482 -800 851 -1058 78 -55
253 -160 266 -160 21 0 8 -25 -78 -154 -207 -308 -318 -443 -562 -686 -164
-164 -273 -260 -432 -378 -114 -85 -363 -252 -375 -252 -5 0 -20 24 -35 53
-64 130 -184 298 -328 456 -190 210 -375 356 -638 505 -158 90 -453 204 -540
210 -75 4 -21 35 176 96 116 37 355 151 482 230 305 190 594 479 786 785 106
169 200 366 244 515 34 115 63 189 72 184 4 -3 8 -13 8 -22z m-4781 -39 c19
-98 91 -280 176 -448 236 -467 583 -817 1060 -1071 98 -52 325 -144 425 -173
72 -20 100 -35 88 -46 -3 -4 -35 -13 -69 -21 -147 -33 -386 -134 -554 -233
-355 -210 -674 -527 -876 -871 -35 -60 -67 -109 -72 -110 -9 0 -261 170 -364
246 -73 54 -226 183 -371 313 -91 82 -286 297 -413 456 -103 129 -299 415
-299 437 0 7 28 28 63 47 518 282 959 825 1132 1396 31 101 45 135 55 135 4 0
12 -26 19 -57z"/>
</g>
</svg>
